/* XPM */
static char *_d3e483fd318402b94dee9eb8a0aa54aH96e2blVXrnv87md[] = {
/* columns rows colors chars-per-pixel */
"64 64 228 2 ",
"   c #7F2E36",
".  c #683C37",
"X  c #77323B",
"o  c #3E463D",
"O  c #3E5E3A",
"+  c #3D5B37",
"@  c #34542F",
"#  c #37662B",
"$  c #3C6433",
"%  c #3E613A",
"&  c #3A6632",
"*  c #564538",
"=  c #425C3C",
"-  c #435C38",
";  c #4B4932",
":  c #644E38",
">  c #426137",
",  c #43623C",
"<  c #486139",
"1  c #4C4D4C",
"2  c #454946",
"3  c #574C4B",
"4  c #455B42",
"5  c #4A5C44",
"6  c #4D534C",
"7  c #4D5B4C",
"8  c #475645",
"9  c #51524E",
"0  c #52594A",
"q  c #504E51",
"w  c #545454",
"e  c #545A53",
"r  c #5B5C5B",
"t  c #595958",
"y  c #655B5E",
"u  c #486144",
"i  c #486245",
"p  c #53694D",
"a  c #54774E",
"s  c #566C52",
"d  c #5C645B",
"f  c #5D6C5B",
"g  c #586555",
"h  c #5A7255",
"j  c #5E7E54",
"k  c #5E735B",
"l  c #5E7D5A",
"z  c #557051",
"x  c #61645E",
"c  c #626C5E",
"v  c #77685A",
"b  c #62745E",
"n  c #637C5D",
"m  c #687C59",
"M  c #73785B",
"N  c #6B7C4F",
"B  c #5F5E61",
"V  c #6E5961",
"C  c #5E6661",
"Z  c #636463",
"A  c #646B63",
"S  c #696B65",
"D  c #686669",
"F  c #6B6C6B",
"G  c #666567",
"H  c #776B69",
"J  c #657463",
"K  c #6A7466",
"L  c #667C62",
"P  c #6A7C65",
"I  c #6C736B",
"U  c #6D7B6A",
"Y  c #657068",
"T  c #71746E",
"R  c #727C6D",
"E  c #767769",
"W  c #6F6E71",
"Q  c #736F74",
"!  c #6E7271",
"~  c #6E7178",
"^  c #737473",
"/  c #757B74",
"(  c #7A7C76",
")  c #747679",
"_  c #7A757B",
"`  c #757978",
"'  c #7B7C7B",
"]  c #9C555D",
"[  c #975B57",
"{  c #935A51",
"}  c #A55355",
"|  c #A1534F",
" . c #8B6359",
".. c #8A6249",
"X. c #8B5B65",
"o. c #975965",
"O. c #826269",
"+. c #817D7D",
"@. c #8B7D70",
"#. c #9A7572",
"$. c #A97C79",
"%. c #58844B",
"&. c #5C8454",
"*. c #5E825A",
"=. c #568052",
"-. c #62815B",
";. c #64855A",
":. c #6A925E",
">. c #6A8265",
",. c #6E826A",
"<. c #6A8767",
"1. c #72836D",
"2. c #738B6D",
"3. c #708A67",
"4. c #6D9464",
"5. c #72926B",
"6. c #739A68",
"7. c #758372",
"8. c #798575",
"9. c #768A73",
"0. c #7A8B75",
"q. c #7C847B",
"w. c #7D8B7B",
"e. c #778D78",
"r. c #7B9375",
"t. c #7B9B75",
"y. c #7D947B",
"u. c #799777",
"i. c #6F8570",
"p. c #7BA474",
"a. c #7BAE76",
"s. c #82847E",
"d. c #818C7D",
"f. c #838276",
"g. c #978A7B",
"h. c #82927D",
"j. c #839C7C",
"k. c #8B9677",
"l. c #83A17C",
"z. c #85AB7D",
"x. c #89A57B",
"c. c #7E7D81",
"v. c #757A80",
"b. c #827E83",
"n. c #8E7D83",
"m. c #A07B83",
"M. c #7E8382",
"N. c #7E8A80",
"B. c #7F9080",
"V. c #838484",
"C. c #888486",
"Z. c #848C83",
"A. c #898C86",
"S. c #868689",
"D. c #898689",
"F. c #878B89",
"G. c #8C8C8C",
"H. c #928D8D",
"J. c #9C8D8B",
"K. c #948984",
"L. c #859383",
"P. c #899485",
"I. c #869C82",
"U. c #8B9C85",
"Y. c #869389",
"T. c #8C938B",
"R. c #8E9B8B",
"E. c #859A89",
"W. c #91948E",
"Q. c #919C8D",
"!. c #9A9589",
"~. c #8D8E91",
"^. c #8D8590",
"/. c #918E92",
"(. c #9B8B92",
"). c #8E9491",
"_. c #8E9A90",
"`. c #949494",
"'. c #999595",
"]. c #929991",
"[. c #959A94",
"{. c #999A96",
"}. c #969699",
"|. c #99969A",
" X c #979A99",
".X c #9A9A9B",
"XX c #A58E94",
"oX c #B88D95",
"OX c #A19C9D",
"+X c #A79597",
"@X c #B59195",
"#X c #AC8A8A",
"$X c #86A283",
"%X c #8AA385",
"&X c #8DA38B",
"*X c #89A883",
"=X c #92A28D",
"-X c #93AB8D",
";X c #90A086",
":X c #94A392",
">X c #99AB94",
",X c #96A199",
"<X c #9DA29C",
"1X c #98A997",
"2X c #99B593",
"3X c #8EB28A",
"4X c #A1A29F",
"5X c #A0AA9E",
"6X c #A3B29B",
"7X c #9D9EA1",
"8X c #A19EA2",
"9X c #AD9CA1",
"0X c #9EA1A1",
"qX c #9EA9A0",
"wX c #A3A3A3",
"eX c #A5ABA4",
"rX c #A9AAA6",
"tX c #A6A5A8",
"yX c #A9A5AA",
"uX c #ABABAB",
"iX c #A7A9A8",
"pX c #A8B1A8",
"aX c #ADAEB0",
"sX c #B1AFB1",
"dX c #ADB1B2",
"fX c #B3B3B4",
"gX c #D1919D",
"hX c #FCADA9",
/* pixels */
"k h n k b L P P L k 9.h b b b J q.q.T K J ,.7.>.L k s f 1.R 8.J 1.0.P 1.P n b 2.P <.b L 2.P J ,.9.>.k <.>.>.>.>.3.n 2.1.P.w.0.A ",
"z L >.>.1.P K 9.,.J 0.9.L R J 1.d.W.R q.P.L.y.i.i.U f L 1.8.8.P P b 9.y.h.,.>.>.2.,.0.,.1.1.2.0.>.P >.n n L >.n z P >.P J 1.w.c ",
"s >.1.7.h.L.L.w.d.R.0.h.P K w.L.T.W.P.R.R.R.R.R.y.E.7.,.0.d.L.U.d.8.0.h.R.y.0.L 0.9.w.1.1.7.0.=X7.9.h.9.P m 2.r.0.0.0.h.1Xh.8.f ",
"R h.Q.P.R.8.R.P.P.w.Z.w.S f P.[.[.Q.A.T.].w.P.:Xw.w.f J Z.P.d.Q.Q.Q.U.0.L.R.P.J J L.L.R.L.L.q.Z.P.R.U.7.A P 0.w.2.h.P.U.R.P.w.p ",
"c :X].,XQ.T.T.A.d.Q.Z.7.Y e [.<X[.T.T.T.T.L.w.w.E.w.R Y B.T.Q.W.T.P.P.h.L.w.L.I 8.L.P.P.P.T.P.P.T.].:XrXe P P.P.Q.d.P.P.P.:XL.g ",
"Y <XeXeXrX].].].`.W.{.A./ r [.<X{.,X,X{.T.Y.B.=X8.( A 7.].].[.[.<X[.T.Z.G.Q.Z.J ` P.T.].{.S.].' W.].{..XZ A W.T.Q.P.Z.R.1X5X7.g ",
"T [.eX<XiX.X`.{.`.W.T.V.^ F rX.XqX.X[._.T.Y.^ K 7 C e A [.].`.[.W.,X[.,XT.).T.I I V.Z.{.W.`.G.{.].`.`.{.V.` [.G.{.].G.R.W.L.P.g ",
"^ W.{.( S.`.C.G.' r F ^ 1 ' W.C.T.[.^ ( A.e e 8 o o e C ^ Z._ ` F T.Z.G.{.].{.I I Z.G.`.T.{.].C.C.`.S.' ' ' {.`.' `.{.[.[.{.q.F ",
"F ( A.`.D.G.D Q D.V._ G.' G.~.`.{.).A.` e G.^ ` r d e d F ' W.`.( ( S _ S.I S.{.G.A..XC.G.) A.G S.~.S.C.D.S.V.~.c.`.' `.V.V.( Z ",
"S.).H.|.}.}.D c.`.|.`.`.|.`.}.`.{.{.S.q.e R.].T.T.M.I Z F `.`.`.W.F ^ T.V.{.`.[.4XZ.0X.X.XtX`.' ].`.`.}.}.tX/.wX8X) `.W ^ F _ V.",
"[.W.|.`.|.|.q /.`.`.G.~.`.|.G.|.{.{.wXF 1 `.{.T.`.G.`._ _ S.`./.T.I ( {.{.]..X`..X.X].tX|..X{.D `.|.{.`.tX4XwXtXyX`.t _ }.`.]..X",
"`.{.|.|.}.|.q B `.`.`.).`.].|.`.tX{.eX` w {.`.G.).`.[. XC.`.).H.G.Z D {.|.].`. X`.|.^ `.{.wX.XG C.|.}..X|.`.|.tXuX' B b.D.|.`.|.",
"`.|.W.}.|./.1 W `.|.`.W.`.S.{.`.{..XwXC.G ].`.|.`.G.|.{.T.T.~.[.}.` F S.`.|.|.`. XS.`.` `..X{.) C.`.|.{. X|.{.{.eX_ q G.G.~.`.`.",
"{.T.`.`.}.}.q Q G.`.`.Z.`./.`.`.|.|..XT Z tXiX|.`.~.{.{.{.`.|.`.}.^ Q `.{.{.`.|.T ) ^ V.+.|.wXV.(  X X|.T.{.`.].<Xs.e F ' |.G.`.",
"W.[.G.`./.D.t D `.`.A.`.`./.`.`.`.}.`.q.+.tXwX.X`.|. XeX).G.{.`.`.S D `.~.`.}.|.|./.Z `.+.|.4X_ V..X`.|.{..X{.T..XT.e ! {.G.`.{.",
"{.|..X`.`.C.t Q `.}.{.S.}.`.G.`.V.`.|.V.`.tXiXwX{.rXwXtXT.A.q.R.'./ ( S..X`.|.|.`.`.8X) S.`.{.S.G.|..XT.`.].L.Z.V.q.A 7.T.W.T.T.",
"[.`.}.|.}.|./.W V.|.V.A.G s.C.].).G.`.`.|.7X`.}.S..X.XT.T.q.I L.W.x P 7.].`.`.}.`.T.]. X`.|.|.C.~.}.}.}.[.R.8.d.d.8./ J L.P.T.G.",
" XG.G.V.`./._ w r Z C G ' F C.+._ G.{._ C.S.`.}. X^ T.I / 7.b J 8.J b U.G.t t w ' ^ D S.^ D.' `.D ^ F ^ q.T.I w.P L.P 1.w.).P.R.",
".XV.`.H.b.`.S.|.`..X<X{.s.s.W.+.`.D.A.V.V.|.M.7XwXsXD Z.q.w.w.y.u , , y.P.G.G.r 2 V.C.V.G.+.F T V.) _ q.q.8 T R R w.w.I 7.Z./ I ",
"].T.`.`./.7X~.}.G.tXeX{.( ( ].G.G.`.~.`. X.X|.7XsXsX).q.[.Z.L.y.p.&.t.4 R..X8XD.w /.`..X|.|.[.`.' C.F D ^ 1 8.q.T Q.A.^ ( V.I I ",
"|. X].|.|.`.`. XC.).`..XI Z q.Z.G.`.`.`.`.}.`.`.|.7XT.^ q.T.R.&Xz.&.t.i ].(.7Xb.t |.|.|.|.(.|.eX|.|./.`.V.r `.[.[.{.{.{. X`. X{.",
"|.|.`.`.). X{.`.G.`.iX|.( I Y.Z.T.|.`.`.`.}.7X}.7XwXtX^ ! ].0 &X3X&.*X7 Q.W.}._ D G `.|.|.8X|.<X|.wX8X|.D 1 {.`.{.{.|.`.|..X|.G.",
"|..XG.`.<XS.G.).`.`.`.`.Z.d U A.W.`.G.|. X|.}.7X7XwX' ` T.W.T.4 *X&.2X4 9.U.{.) F F `.'.tX}.}.|.wX7X8X|.Z q `.}.`..X|.}.|.`. X|.",
"|.`.`.`.{.G.).`. X}.|.`.q.d A Z.`.G.`.G.`.}.|.aX8XtX7XV.V.|.{.d., j :XP.n &XT.I A ( `.OX8X7X.X.X7X7X8X.X^ w ) |. X{.~.|.`.G.}.|.",
"}.`.S.}.`.}.`.G.|.`.G.G.( A g I `.G.).|.`..X.X|.yXyX|.S.( ].].].R.[.`.|.L =X{. XI M./.}./.wXwX^ `.8XT.~.D.D ~.|.).|.`.`.`.`.G.`.",
"`.`.W.D C.r ' ~.) H.c.( d d ^ g S.^ A.|. XS.`.7X}.sXuXG.S.' `.`.S.' b.W.>.n V.b.e ! ' _ ~ D D ^ F w ^ D c.^ M.~.`.V.^ `.V.`.G.W.",
"'.G.F G B W G t Z ' I ` ^ Y Z.T.G.D.C.S.G.' ' G.Q }./.~.( c.C.q.( q.Q q.l t.I F ' G.b.Q S.F r e ' ` Z F ^ F D.S.G.G.' x ( F V.A.",
"T.[.G.Z F Z C D T.A.T.Z.].{.Z.`..X|.`.^ T.V.S.wX|.}.}.' |.|.].C.W.^ ` T.l j.L.~.|.yX8X8XwX5XZ x `.`.V.].}.7X7X7X|. XM.^ T.Z.T.R.",
"R.P.,X|.{.|._ I V.T.T.Z.Y.T.T.`.`.wXW.' ' |.0XwXtX7X|.|.tX.X`.`.G.F W .XL $X[.[.).`.8XtXuXiXd d T `.|.`.}.uX7X7XT.G.F ` T.Y.d.Z.",
"P.q.<X{.|.`.V.Z / L.w.w.Z.A.).7X.X|.OX` ).|.`..X`.|.|.}. X.X`.].W.x x {.U.L R.Q.{.].`.}.fXtXt q T `.|..XwX|.|.`.|.{.C q.L.w.L.h.",
"w.h.L.rXwXtXF r A Z.0.w.Z.T..X`.}.|.|.) I `. X`.|.C.iXwX.X{.G.{.d.U S 1X%Xn %X4 R.[. Xb..X8X`.t F C.eXG.|.}.|.0X.X{.Y q.w.w.d.R.",
"9.w.q.eX).H.F A f Z.L.L.R.].].`.`.tX|.F Z |.].`.V..X.XiXtX`.`.T.d.b Y d.1XL %X4 [.[.`.|.OXsXc.w F .X.X.X}.`. X|.|.].I ( Z.w.L.I.",
"h.d.Z.{.4XS.I d C B._.}./.|.`.H.`.}. X' V.Z.W.T.`.`.V.wX). XG.[.0.J d {.P.U.L J _.).G..X}.J.~.2 c.F.`.tX`.|.~..X7X`.` ( e.U -XL.",
"d.=XP.Z.|.T.q.I Y Y.).}.~.`.W.W.G.`. X_ ^ .XT.{.{.`.( Z.r `.).{.0.w.J {.].R.Q.R.Y.[..X|.|.`.c.C Y ).`.V..X|.`.wX.X`.7.U w.e.=X:X",
"R.U.W.`.{.].!.^ Y ).).`.~.`.|.W.W.W.).` / 8.T._.W.A.T.L.A.A.A.Z.R.9.I [.{.[.[.Q.`. X/.|.`.H.~.2 J P.T.s.A.s.{..XwX[.Z.^ Z.Z.d.=X",
"].[.W.}.`.}.{.A Z ( C ) W M.).{.Z.T V.F.7.R w.P.s.Z.R Z.( !.R T.w.d.`.`.`.}.`.`.`.' `.'.`.`.~.d c 8.P.T.T.W.W.{.{.{.S._ `.T.d.L.",
"T.Z.W.G.V.C.^ +.r W 2 2 2 1 1 F r / _ / J k 7.7.M.M.F.v.E T ( 8.Q D.c.c.n.H C.c.~ ( C.'.f.f.x q e d I e 2 g x A 1 V.`.Z.s.d.k.L.",
"{.|.|.D.+.}.H.`.T.uXuXH.B w q [.q.T.P.Z.e.L./  X`.0X7XF.F V.{.+X#XX.(.+Xm.O.(.G.W ^.G.{.!.K.G.S ( Z.A w.f o g d.Z.` V.C.A.d.R P.",
"}.`.|.`.'.{.H.|.D.yXOXOXJ.w w W.N.q.T.L.L.7.Z.[.`.}.).C S T.[.'.@XX.X.gXo.o.+X}.v.v.7X X{.{.`.{.R.R.I.L.9.k f Q.T.|.|..XG..X_ Z.",
"|.`..XG.`.W.`.'.`.W.wXtX'.r t H.!.!.V.w.P.d.Q.P.rXtX].A S P.R.W.XX[ ]     gXXX7XC ~ 7X.X.X`.[.T.P L L t.e.h 8 G.`.|.|.|.sX7X|.{.",
" X X{.).G.`.`.|.`.}. X7X~.B G XXX.oX#XK.!.Q.P.T. XwXwXc P = 4 5 M g.| hX} } X.'.y F tXwXaX).=XP [.U.u.- r.b 9 S.`.<XG.[.|.wX.X,X",
"|.|.W.W. X[.G.{.}.}.`.yX/.y V oX] ] $.* !.W.{.]. X<XW.P m j.%XU.3 v ....}   @XJ.F Q 7X`.7X_.j.n Q.d.r., 2.8.A `.W.].].[.|.7X.XeX",
"|.{.'.`.[.`.`. X X X7X|.9XV o.] hX| [ * !.G.).[.0X}.,XJ n n L.Q.!. .: : .  .J.K.S Z '.OX7XqX$X*.-X7 l.- 0.K Z `.G.4X{.rX}.|.`.yX",
"{.'.}.{.`. X{.wX|.|.`.|.XXO.X.o.} ] {  .!.T.).`. X_.Y.7.n *XQ.!.!.+Xg.; * @.8.L.K A !.OX7X,X&XL E.$X= $XE.C D ~.|.{.8X`.wX|.9XyX",
"{.`.|.|.tXsXuXwXfX|.dXiX].v H #XX X !.= [.,X{.A.'.D R i &.&.m h.!.R.k.P.Q.k.U.1.R g 0X4X<XuX{.L.L $XI.L.P.T T `.}.}.{..X0X0X7XyX",
"].`.}.|.}.yXOXuXtXS.dX) G.( f.* : #.!.4 P 7.T W._ B d p *.a z n P f.R R P 1.0.k d./ Z.0XV.^ ' ].n h L.G.W.A.t S V.C.M.C.`.0X7X7X",
"S.G.|.7X/.C..XF Y G Q C.F P.P n !.K.{.d.5 2.( _ ' q c c g s c d.1.L 8.A / Y I Y A q.' c.V.W W C 2.L / q._ b.t T ' S ~.) F G./.W ",
"T.`.|.c.b./.`.Z.d ^ /.H.!.=XP &XR.eX'.A.8 I.[.,X|..XQ.U.h.R.].Q.L 1.8.`.{.].,X).G.G. X|.`.`.}.( z *.L.{.}.|.`.~.`.`.`.M._ ~.W M.",
" X|.0X}.|.`.T.g C P.`.iX1XL 1XR.E.&X].Z.8 U _. X XW.U.m %.;.P.W.m 1.I W.|.|. X X}.`.}. X`.{.'.I >.-.= R.,X[. X7XtXwXC.F +.`.G.Z.",
"T..X}.uXwX{.T.f h w.wXiX-XL A.T.-.% Q.T.7 B.R. X[.R.%X&.# &.j.-X=Xn K '.wX'.`.`.7X}.T.E.T.W.H.T 4 n % %X[.wX}.|.|.uXC.Z ' }.{.`.",
"|.|.}.7X8X[.I.&.a r.5X[.n %X).[.> N U.E.L R _._.Y.e.3.*.p.j &.z.z.&.K C.gXX.+X`.|.}.&X>.&X=XT.' g R.&Xn pXaX`.]..X.XA.D c.S.V.D.",
"`.|.|.`.!.=X= > *.-.U.-Xn j.{.Q.> x.&X5 K Y  X_.N.e.t.*.$Xr.+ &.%.&.J K.o.X +X`.qX,X<.B.y.Y {.e 1 W.%X5 ].|.eXeX<X{.( ^ M.~.}.D.",
"|.'.[.R.&X= P.8.p 2.n 5.&.j.Q.{.= t.&X4 T S '.`.B.8.r.L B._._.*X# &.U J.X ] @X<XtX5Xm %X[.[.U f 1 T.=Xn 7 =XqXqX.XT.V.' v.^.n.^.",
"OX}.{.[.%X= P.` x 0.-.6.j $X{.T.:X4 4 I.Z.+.'.|.}.N.k.6X,XdXeXpX, :.r.g. . .J.R.{.Q.m j._._.4 e.e [.R.R.4 &XT.).[.`.A.F b.}./.|.",
".X{.}.,X=X= I Z.F P -.p.&.t.h.[. XM.I P.r F F t F Z I x ' 0XtX[.&X, &.%.N M E R f.R m 2.w.Z.n h d t r e p 4 C _ ! M.S.~ H.V._ |.",
"{.T.G.T.%Xm 7 G.x 0 l % &.@ 8 P.~.~.G.Z.G.`.V.~.S.^.s.w 2 1 w ` d k # & # &.;.j.7.P n 2.y.:X&X4 5X^ G.q.3.= I ^ ) ~ ~.V.( ' S Z.",
"F.S.F.R.L.U.8 :XU 1.z , *.l 6 T.{.|.{.W.{.).G.<X.XwX!.c +.J./.Q.Q.>X2X2X=X, & &.U I 5.-.=X&XpXqX5 :XQ.U.- ;.J T.T.pXwX}.S..XtXq.",
"}. X)._.[.7 &X%Xn j.2.O &.>.8 ^ [.{.'.+X<X.X{.].'.`.K.F H H !.P.k.5 u 1XU.R.& & >.U %X>.j.L 1XeX= -X%X2.> < P w.].dXiXwX`.G.8X`.",
"}.}.).{.R.4 4 4 5 h.%X> *.= 8 I ).W.|.`.`.eX|.eXrX<XT.Z 3 v v k.> =.&.*._._.3XO u L R.[.U.$Xn $X, + *X5.m , k Z.qX( |.|.}.}.`.`.",
"/.}.{.[.R.L.z U.R.U.t.> p., 0 ' L.N.~.{.G.P.<X.X{.P.Z.^ 3 K.M N $ p.a.&.&X).-X% - b _.].U n L t.p.& 2X- 0.= C :XtX`.`.G.^.G.H.W.",
"|.].`.].d.=X1.c Q.U.j.$ z.= J K P.E.G.Z.L.L._.{.R.R.Z.q.6 P.n x.j.t.z.*.:X_.3XO , ;.( {.[.[.P.I.& # # &.L.8 k B.Z.H.|.`.|.H.'.}.",
"`..X).{.R.h.8.w.s.h.r.$ j.4 g d.h.7.U.7.e.y.Z.T.<XR.P.q.7 U.i l.l.+ p.n _.R.y.u > m Q..X|.G.].U.> # & 4.B.6 k e.P.T.C.|.T.s.{.H.",
"}.}. X).R.Z.L.w.T.P.y.+ j.- / d.r.h.0.0.I.9.L.W.U.[.{.s.c d., $ # > 6.n 0.U.u.% % 2.P.G..X`.[.U.$ $ u.R.).d U B.Z.Z.{.q.W.Z.Z.T.",
"}.7X XT._.h.L.P.A.[.$X, z.5 P.d.w.u.2.8.P.h.R.8.Z.A.}.( e h.5.4.:.6.:.-.d.e.$X% % >.U.[.|.'.{.p $ 4.I.V.S.Z 7.,.L.P.7.8.7.E.F.)."
};
